<svg width="512" height="512" viewBox="0 0 512 512" fill="none" xmlns="http://www.w3.org/2000/svg">
    <rect width="512" height="512" rx="100" fill="#1A56DB"/>
    <path d="M156 256C156 227.281 179.281 204 208 204H304C332.719 204 356 227.281 356 256C356 284.719 332.719 308 304 308H208C179.281 308 156 284.719 156 256Z" fill="white"/>
    <path d="M208 220C188.118 220 172 236.118 172 256C172 275.882 188.118 292 208 292H304C323.882 292 340 275.882 340 256C340 236.118 323.882 220 304 220H208Z" fill="#1A56DB"/>
    <circle cx="208" cy="256" r="24" fill="white"/>
</svg> 